<?xml version="1.0" standalone="no"?>
<!DOCTYPE svg PUBLIC "-//W3C//DTD SVG 20010904//EN"
 "http://www.w3.org/TR/2001/REC-SVG-20010904/DTD/svg10.dtd">
<svg version="1.0" xmlns="http://www.w3.org/2000/svg"
 width="300.000000pt" height="300.000000pt" viewBox="0 0 300.000000 300.000000"
 preserveAspectRatio="xMidYMid meet">
<metadata>
Created by potrace 1.14, written by Peter Selinger 2001-2017
</metadata>
<g transform="translate(0.000000,300.000000) scale(0.100000,-0.100000)"
fill="#000000" stroke="none">
<path d="M2090 2483 c0 -30 13 -40 66 -52 29 -7 61 -22 72 -34 26 -28 56 -103
48 -122 -8 -23 -99 -63 -122 -54 -57 22 -126 2 -144 -42 -16 -38 -6 -75 28
-96 39 -25 41 -30 35 -87 -11 -109 85 -239 237 -323 97 -53 279 -5 379 102 32
34 37 36 81 31 56 -6 77 10 84 65 6 52 -16 95 -57 110 -28 10 -40 23 -60 67
-30 62 -27 83 11 78 45 -6 82 -24 141 -70 31 -25 63 -45 71 -46 57 -8 54 31
-7 87 -90 81 -182 110 -290 91 -23 -5 -36 -1 -48 12 -15 17 -13 21 41 75 52
51 56 58 42 72 -23 22 -49 10 -117 -59 -34 -33 -63 -59 -66 -57 -2 3 -10 17
-18 32 -12 23 -13 36 -3 70 17 58 15 71 -11 75 -27 4 -51 -30 -58 -83 -11 -85
-43 -72 -101 41 -53 102 -94 133 -176 134 -49 0 -58 -3 -58 -17z m426 -289
c-5 -14 38 -54 59 -54 16 0 79 -69 99 -109 20 -38 21 -123 2 -160 -41 -79
-185 -162 -270 -154 -41 3 -126 47 -165 85 -84 82 -105 138 -89 230 17 93 55
134 151 164 37 12 136 12 154 1 6 -4 19 0 29 7 21 16 38 11 30 -10z"/>
<path d="M2301 2133 c-18 -35 -17 -99 3 -126 11 -14 19 -16 40 -7 23 8 26 15
26 54 0 25 -5 57 -12 71 -13 29 -43 33 -57 8z"/>
<path d="M2500 2098 c-11 -12 -21 -25 -21 -30 -3 -19 -5 -24 -13 -36 -11 -18
20 -62 44 -62 23 0 36 27 46 92 5 29 3 42 -7 49 -20 13 -26 11 -49 -13z"/>
<path d="M2392 2001 c-20 -12 -20 -71 0 -84 22 -14 56 14 54 45 -1 25 -36 50
-54 39z"/>
<path d="M2221 1972 c-18 -33 51 -142 109 -171 83 -42 250 4 238 66 -4 23 -27
27 -64 12 -98 -40 -154 -28 -195 44 -38 70 -68 86 -88 49z"/>
<path d="M808 2103 c-24 -6 -30 -28 -33 -113 -1 -41 -7 -76 -12 -77 -5 -2 -29
34 -53 79 -54 105 -57 108 -91 108 -54 0 -61 -25 -62 -250 -2 -189 -1 -202 17
-216 19 -14 51 -11 70 7 9 8 14 55 15 152 1 31 4 57 9 57 6 0 32 -36 84 -118
9 -15 17 -36 17 -48 1 -23 35 -64 54 -64 7 0 22 6 32 14 18 13 19 27 16 227
-1 117 -5 217 -7 221 -9 14 -38 25 -56 21z"/>
<path d="M31 2086 c-15 -18 -23 -83 -28 -249 -4 -151 3 -188 45 -206 19 -9 27
-7 47 13 21 21 23 31 21 99 -2 71 0 77 24 95 28 21 50 18 50 -6 0 -9 22 -57
48 -107 41 -77 52 -90 75 -93 56 -7 71 30 37 95 -22 43 -90 193 -90 198 0 2
25 29 55 60 55 58 65 81 43 103 -22 22 -62 13 -103 -24 -60 -53 -113 -95 -122
-97 -4 -1 -9 22 -10 51 -1 30 -7 60 -14 68 -15 18 -63 18 -78 0z"/>
<path d="M426 2082 c-14 -17 -16 -44 -13 -223 2 -113 6 -210 10 -216 12 -19
47 -22 68 -4 21 17 22 25 21 212 0 107 -1 199 -1 206 -1 18 -30 43 -50 43 -10
0 -25 -8 -35 -18z"/>
<path d="M923 2085 c-27 -19 -29 -37 -9 -68 20 -31 27 -268 9 -293 -21 -28
-16 -72 10 -88 28 -18 59 -21 124 -12 128 19 204 165 161 308 -15 51 -77 121
-129 145 -54 25 -136 29 -166 8z m171 -135 c33 -37 36 -45 36 -101 0 -54 -3
-64 -29 -90 -27 -27 -69 -39 -72 -21 -4 22 -5 229 -1 240 7 22 29 13 66 -28z"/>
<path d="M1259 2084 c-18 -22 -20 -45 -5 -69 11 -18 13 -131 6 -350 -1 -37 28
-46 135 -44 119 3 155 16 150 56 -4 41 -30 53 -117 53 -71 0 -78 2 -78 20 0
22 0 22 49 24 32 2 61 26 61 51 0 22 -26 46 -55 51 -53 8 -54 10 -52 66 l2 53
78 2 c90 2 119 17 111 61 -3 14 -7 29 -10 34 -3 4 -63 8 -133 8 -106 0 -131
-3 -142 -16z"/>
<path d="M1592 2077 c-27 -28 -28 -58 -4 -80 16 -15 18 -33 15 -184 -2 -92 0
-173 4 -179 4 -6 20 -14 35 -18 41 -9 68 22 68 78 0 44 17 70 37 58 6 -4 19
-27 29 -52 20 -50 56 -87 82 -85 67 6 86 44 42 85 -15 14 -35 44 -44 65 -15
34 -15 39 0 49 9 7 24 36 34 65 20 59 12 105 -25 152 -39 50 -71 62 -164 66
-81 3 -89 1 -109 -20z m167 -92 c59 -30 55 -101 -5 -117 -12 -3 -27 -3 -32 1
-13 8 -20 101 -9 119 10 15 12 15 46 -3z"/>
<path d="M1133 1553 c-5 -1 -20 -4 -35 -7 -15 -3 -30 -15 -33 -26 -7 -23 -25
-27 -25 -5 0 19 -36 38 -60 30 -25 -8 -31 -29 -31 -114 0 -39 -4 -71 -8 -71
-7 0 -38 52 -85 142 -28 54 -91 61 -110 11 -4 -9 -9 -104 -12 -211 -4 -173 -3
-197 12 -213 20 -22 57 -25 73 -5 11 13 17 68 20 169 1 20 4 37 9 37 12 0 93
-129 98 -157 8 -46 23 -63 53 -63 53 0 56 15 53 217 -1 100 1 183 6 183 4 0
16 -6 27 -14 10 -7 32 -11 48 -10 54 7 57 -2 53 -175 -1 -87 1 -167 5 -178 10
-29 56 -36 80 -12 11 11 19 27 20 37 0 9 0 83 0 164 -1 156 1 162 49 163 37 1
58 17 64 47 8 47 -16 57 -147 60 -64 2 -120 2 -124 1z"/>
<path d="M52 1538 c-15 -4 -33 -17 -40 -29 -12 -19 -11 -24 11 -46 20 -21 34
-25 95 -26 40 0 72 -4 72 -8 0 -3 -10 -17 -21 -30 -30 -34 -149 -216 -149
-229 0 -5 -4 -10 -10 -10 -16 0 -12 -66 5 -80 18 -15 255 -14 303 1 26 9 32
16 32 39 0 42 -23 54 -109 56 -42 2 -81 3 -88 3 -13 1 38 78 103 156 21 26 47
57 56 69 10 11 22 26 27 33 19 22 20 62 3 83 -16 19 -29 21 -140 23 -67 1
-134 -1 -150 -5z"/>
<path d="M520 1542 c-63 -1 -119 -7 -124 -12 -5 -5 -10 -96 -11 -202 -1 -233
7 -267 66 -260 4 1 51 2 105 3 123 2 144 9 144 48 0 45 -21 55 -118 56 -82 1
-87 2 -90 23 -3 19 1 22 33 22 52 0 75 15 75 49 0 35 -20 53 -63 56 -17 2 -36
3 -40 4 -4 0 -7 25 -5 54 l3 52 80 5 c44 3 87 10 96 15 38 24 28 82 -16 88
-11 1 -72 1 -135 -1z"/>
<path d="M1453 1539 c-29 -11 -40 -54 -20 -77 12 -14 14 -46 11 -180 -1 -90 1
-174 6 -187 9 -25 49 -37 75 -23 23 14 33 47 25 84 -14 63 27 82 55 25 51 -99
98 -134 141 -106 31 20 30 43 -4 85 -15 19 -36 51 -46 71 -19 36 -19 37 1 65
10 16 20 38 21 49 1 11 3 29 6 40 7 41 -38 106 -95 135 -40 21 -142 32 -176
19z m144 -117 c22 -14 23 -61 1 -81 -32 -31 -48 -16 -46 40 3 49 15 60 45 41z"/>
<path d="M1790 1533 c-21 -15 -22 -21 -17 -162 5 -165 15 -208 60 -257 63 -68
151 -58 208 24 38 53 45 91 47 239 1 124 0 134 -20 153 -27 24 -30 25 -57 3
-20 -17 -21 -29 -24 -170 -2 -127 -6 -155 -20 -171 -39 -43 -76 -10 -82 74 -3
33 -7 101 -9 152 -2 51 -9 99 -15 106 -18 22 -48 25 -71 9z"/>
<path d="M2159 1532 c-25 -21 -27 -42 -29 -277 -1 -153 0 -170 17 -182 10 -8
27 -12 38 -11 34 5 45 45 45 175 0 67 4 124 9 127 5 3 16 -6 25 -20 30 -45 80
-48 111 -8 6 7 17 14 24 16 12 2 15 -19 16 -128 1 -147 8 -167 53 -155 41 11
47 47 46 256 -1 171 -2 189 -19 201 -32 24 -56 16 -105 -36 -26 -27 -53 -50
-60 -50 -8 0 -34 23 -59 50 -51 56 -80 67 -112 42z"/>
<path d="M28 988 c-24 -8 -28 -15 -28 -49 0 -35 3 -39 25 -39 29 0 27 14 29
-201 2 -179 7 -199 53 -199 38 0 49 19 49 84 l-1 58 60 28 c68 31 96 64 118
136 12 42 13 56 1 89 -12 35 -56 83 -79 85 -5 1 -19 4 -30 6 -39 10 -170 11
-197 2z m185 -107 c9 -1 23 -12 29 -26 14 -32 -4 -70 -44 -91 -34 -18 -42 -7
-44 61 -2 59 1 64 24 60 9 -2 25 -4 35 -4z"/>
<path d="M769 979 c-10 -10 -19 -25 -19 -31 1 -18 25 -48 38 -48 8 0 11 -52
10 -174 -2 -189 5 -226 47 -226 27 0 44 31 49 91 4 59 9 66 43 65 23 -1 32 -9
53 -53 14 -28 36 -63 49 -77 l24 -26 194 0 c192 0 213 3 250 37 18 16 16 48
-3 67 -12 12 -38 16 -115 16 l-101 0 68 97 c37 54 80 111 95 128 42 44 55 80
39 110 -17 31 -41 36 -200 37 -128 1 -134 0 -152 -22 -21 -25 -16 -59 11 -75
9 -5 50 -11 91 -12 41 -1 79 -2 84 -2 4 -1 -3 -16 -16 -33 -13 -18 -49 -73
-79 -121 -69 -114 -72 -118 -86 -142 l-12 -20 -16 20 c-8 11 -29 46 -46 79
l-30 58 20 49 c27 62 27 108 -2 149 -36 55 -75 71 -178 75 -79 3 -93 1 -110
-16z m203 -113 c16 -23 7 -55 -24 -85 -21 -21 -35 -28 -42 -21 -13 13 -7 113
7 122 14 9 49 0 59 -16z"/>
<path d="M2437 985 c-9 -6 -37 -59 -63 -116 -25 -57 -52 -117 -60 -133 -8 -16
-14 -35 -14 -43 0 -7 -6 -13 -12 -13 -8 0 -30 53 -53 126 -46 148 -66 184 -97
184 -57 -1 -66 -38 -33 -132 14 -40 27 -78 29 -85 1 -7 5 -16 9 -19 4 -4 7
-17 7 -29 0 -11 4 -25 8 -30 5 -6 15 -30 22 -55 7 -25 25 -66 38 -92 23 -44
28 -48 62 -48 42 0 59 15 88 80 159 350 165 365 144 397 -11 18 -55 23 -75 8z"/>
<path d="M502 982 c-39 -12 -86 -58 -117 -113 -26 -48 -30 -64 -30 -139 0 -78
2 -89 30 -129 35 -52 114 -99 166 -100 76 -2 150 56 194 152 45 96 0 250 -88
302 -46 26 -117 39 -155 27z m113 -112 c9 -10 26 -45 36 -76 22 -66 13 -117
-27 -155 -50 -47 -139 -26 -162 38 -12 35 -8 114 7 151 24 56 110 82 146 42z"/>
<path d="M1749 856 c-44 -30 -67 -64 -84 -124 -23 -82 -8 -139 52 -192 44 -38
49 -40 112 -39 100 1 157 41 133 93 -13 29 -44 34 -86 15 -27 -13 -96 -4 -96
11 0 6 14 10 30 10 35 0 101 38 124 72 36 50 4 137 -59 164 -49 20 -85 17
-126 -10z m90 -112 c-15 -18 -49 -18 -49 1 0 20 32 36 48 23 9 -8 9 -14 1 -24z"/>
<path d="M2023 586 c-23 -20 -24 -25 -13 -47 25 -47 61 -52 86 -14 36 54 -23
103 -73 61z"/>
<path d="M2417 577 c-13 -21 -13 -26 1 -50 28 -45 91 -28 92 25 1 46 -67 64
-93 25z"/>
</g>
</svg>
